<?xml version="1.0" encoding="utf-8"?>
<!-- Generator: Adobe Illustrator 23.0.3, SVG Export Plug-In . SVG Version: 6.00 Build 0)  -->
<svg version="1.1" id="Layer_1" xmlns="http://www.w3.org/2000/svg" xmlns:xlink="http://www.w3.org/1999/xlink" x="0px" y="0px"
	 viewBox="0 0 24 24" style="enable-background:new 0 0 24 24;" xml:space="preserve">
<style type="text/css">
	.st0{fill:none;stroke:#000000;stroke-width:2.5;stroke-linecap:round;stroke-linejoin:round;stroke-miterlimit:10;}
</style>
<g>
	<path d="M12,2c2.7,0,5.2,1,7.1,2.9c3.9,3.9,3.9,10.2,0,14.1C17.2,21,14.7,22,12,22c-2.7,0-5.2-1-7.1-2.9C1,15.2,1,8.8,4.9,4.9
		C6.8,3,9.3,2,12,2 M12,0C8.9,0,5.9,1.2,3.5,3.5c-4.7,4.7-4.7,12.3,0,17C5.9,22.8,8.9,24,12,24s6.1-1.2,8.5-3.5
		c4.7-4.7,4.7-12.3,0-17C18.1,1.2,15.1,0,12,0L12,0z"/>
</g>
<line class="st0" x1="6.5" y1="6.5" x2="17.5" y2="17.5"/>
<line class="st0" x1="6.5" y1="17.5" x2="17.5" y2="6.5"/>
</svg>
