<svg id="Layer_2" data-name="Layer 2" xmlns="http://www.w3.org/2000/svg" viewBox="0 0 557 167.32"><defs><style>.cls-1{fill:#2c2664}.cls-2{fill:#9693b2}.cls-3{fill:#f7d03f}.cls-4{fill:#fbe79f}.cls-5{fill:#fce8ac}.cls-6{fill:#8b7ea6}</style></defs><title>logo</title><ellipse class="cls-1" cx="124.44" cy="40.73" rx="13.12" ry="13.39"/><path class="cls-2" d="M269.74 241.65a13.42 13.42 0 0 1-2.86 26.45 12.9 12.9 0 0 1-2.34-.23 13.53 13.53 0 1 0 5.2-26.22z" transform="translate(-142.44 -213.98)"/><ellipse class="cls-3" cx="73.02" cy="25.2" rx="13.12" ry="13.39"/><path class="cls-4" d="M202.34 239.18a13.26 13.26 0 0 1 13.12-13.39 13 13 0 0 1 1.35.07 13.53 13.53 0 1 0-3.55 26.59h.41a13.3 13.3 0 0 1-11.33-13.27z" transform="translate(-142.44 -213.98)"/><path class="cls-3" d="M118.65 13.22l-8.46 5.14-.56 9.89-7.51-6.46-9.57 2.52 3.82-9.13-5.35-8.33 9.86.82L107.15 0l2.27 9.64 9.23 3.58zM48.88 22.25l-6.96 4.23-.46 8.14-6.18-5.32-7.88 2.08 3.15-7.52-4.41-6.85 8.12.67 5.16-6.31 1.87 7.93 7.59 2.95zM17.03 45.1l-5.21 3.17-.35 6.09-4.62-3.98-5.91 1.55L3.3 46.3 0 41.17l6.08.5 3.86-4.72 1.41 5.94 5.68 2.21zM183.39 58.43l-9.64 5.85-.64 11.27-8.55-7.36-10.9 2.87 4.35-10.4-6.1-9.49 11.24.93 7.14-8.74 2.59 10.98 10.51 4.09zM198.14 113.9l-11.23 6.82-.75 13.12-9.96-8.57-12.7 3.35 5.07-12.12-7.11-11.06 13.1 1.09 8.31-10.18 3.02 12.79 12.25 4.76z"/><path class="cls-1" d="M233.11 274.17c13.57-3.93 43.86-6.64 53 23.57 10.36 34.1-38.57 83.56-38.57 83.56s14.11-22.5 16.07-39.64c-16.78 12.5-32 20.35-53 22 24.64-12.5 37.5-21.6 47.14-47.14-16.07-1.25-36.07-10.71-38.75-12.5 23.21 4.29 41.08 2.21 43-9.46s-9.61-19.14-28.89-20.39z" transform="translate(-142.44 -213.98)"/><path class="cls-3" d="M232.4 274s-27.68-32.14-54.28-10.53S162 356.13 162 356.13s1.79-31.78 8.57-42.67c13 36.78 32.67 48.21 32.67 48.21s-23-30.35-13.75-65.17c14.28 6.61 23.57 7.32 28.21 7.14-21.43-12.32-22-23.39-19.28-28.57 2.36-4.47 9.34-15 33.98-1.07z" transform="translate(-142.44 -213.98)"/><path class="cls-5" d="M178.12 263.46C204.72 241.85 232.4 274 232.4 274c-4.29-5.53-34.84-37.34-63.92-7.86-26.25 26.6-7.5 83-6.43 90-.05-.01-10.54-71.08 16.07-92.68z" transform="translate(-142.44 -213.98)"/><path class="cls-4" d="M170.62 313.45a30.23 30.23 0 0 0-2.81 6.38c3.25 7.6 13.87 28.85 35.34 41.74-1.73-1.06-20.15-13.09-32.53-48.12z" transform="translate(-142.44 -213.98)"/><path class="cls-6" d="M292.39 300.78c-6.18-24-26.18-31.54-48.21-28.69 14.88-1.43 34.82 2.14 42 25.65 10.36 34.1-38.57 83.56-38.57 83.56 14.96-10.3 52.86-49.13 44.78-80.52z" transform="translate(-142.44 -213.98)"/><path class="cls-2" d="M263.64 341.66c-16.78 12.5-32 20.35-53 22 20.26.67 45.62-12.3 51.91-15.92a49.35 49.35 0 0 0 1.09-6.08z" transform="translate(-142.44 -213.98)"/><path class="cls-3" d="M391 303s-1.88 5.76-6.82 6.94-14.47 1.29-14.82-10.23l20.11-7.18s-3.88-16-19.17-12.35c-10.35 2.47-13.88 16.61-11.76 24.7 2.59 9.88 13.41 16.58 23.41 12.35A14.51 14.51 0 0 0 391 303zm-16.11-18.23c6.59-.59 8.47 5.65 8.47 5.65l-14.47 2.23s-.61-7.32 5.97-7.91z" transform="translate(-142.44 -213.98)"/><path class="cls-4" d="M381.92 317.21a16.72 16.72 0 0 1-17.84-3.29 17.63 17.63 0 0 1-5.57-9.06c-2.12-8.09 1.41-22.23 11.76-24.7.54-.13 1.07-.23 1.58-.31l.43-.06c.37-.05.74-.09 1.09-.12h1.82c.45 0 .89 0 1.31.1l.12-.05c-9.07-1.44-24.23 4.52-23.61 22.17.64 18.08 23.59 23.35 32.89 13a15.85 15.85 0 0 1-3.98 2.32z" transform="translate(-142.44 -213.98)"/><path class="cls-4" d="M374.86 284.74h-.33c4.09.33 6.1 4.25 6.77 5.92l2-.31s-1.85-6.19-8.44-5.61z" transform="translate(-142.44 -213.98)"/><path class="cls-1" d="M437.64 268.18h-20.32v51.15h-8.44v-51.15h-20.32v-7.58h49.08v7.58zM477 304.09l10.08-23.42h8.18l-17 39.44h-2.41l-11.45-27-11.37 27h-2.41l-17.22-39.44h8.18l10.16 23.42 9.82-23.42h5.68zM505.35 273.52a4.56 4.56 0 1 1 4.56-4.56 4.59 4.59 0 0 1-4.56 4.56zm3.79 45.81h-7.66v-38.66h7.66v38.66zM527.75 285.75h.17a14.94 14.94 0 0 1 11.54-5.86c7.32 0 13.17 5 13.17 15.59v23.85H545v-23.94c0-5.68-2.93-9.39-7.58-9.39-3.36 0-6 1.55-9.64 5.6v27.73h-7.66v-38.66h7.66v5.08zM571.07 285.75h.17a14.94 14.94 0 0 1 11.54-5.86c7.32 0 13.17 5 13.17 15.59v23.85h-7.66v-23.94c0-5.68-2.93-9.39-7.58-9.39-3.36 0-6 1.55-9.64 5.6v27.73h-7.66v-38.66h7.66v5.08zM610.63 273.52a4.56 4.56 0 1 1 4.56-4.56 4.59 4.59 0 0 1-4.56 4.56zm3.79 45.81h-7.66v-38.66h7.66v38.66zM633 285.75h.17a14.94 14.94 0 0 1 11.54-5.86c7.32 0 13.17 5 13.17 15.59v23.85h-7.66v-23.94c0-5.68-2.93-9.39-7.58-9.39-3.36 0-6 1.55-9.64 5.6v27.73h-7.66v-38.66H633v5.08zM699.45 286.61h-7.92c3 3 4 5.17 4 8.44a13.83 13.83 0 0 1-3.62 8.7c-5.17 5.51-15.67 2.76-15.67 7.32 0 2.15 4 3.44 11.8 5 8.27 1.64 11.19 5.85 11.19 10.76 0 7.66-6.8 12.31-18.25 12.31-10.42 0-17.82-4.91-17.82-11.71 0-5.68 3-9 9.73-10.68-2.67-1.64-3.87-3.19-3.87-4.91 0-2.5 2.41-4.65 6.11-5.51v-.17a14.68 14.68 0 0 1-6.46-4.91 12.35 12.35 0 0 1-2.07-7.23c0-8.27 6.46-13.35 16.88-13.35h15.93v5.94zm-20.24 34.61c-5.17 0-8.78 2.41-8.78 5.86 0 3.87 3.79 5.94 10.76 5.94 6.72 0 10.68-2.07 10.68-5.6 0-4.9-7.92-6.19-12.66-6.19zm2-33.92c-4.22 0-7.66 3.19-7.66 7 0 4.22 3.1 7.06 7.75 7.06a7.06 7.06 0 0 0 7.4-7.23c-.02-3.73-3.46-6.83-7.51-6.83z" transform="translate(-142.44 -213.98)"/></svg>